<mxfile host="app.diagrams.net" modified="2023-11-19T10:01:45.390Z" agent="Mozilla/5.0 (Windows NT 10.0; Win64; x64) AppleWebKit/537.36 (KHTML, like Gecko) Chrome/119.0.0.0 Safari/537.36 Edg/119.0.0.0" etag="j8u53LCkd8fzfsoAX2zw" version="21.8.0" type="device">
  <diagram name="Page-1" id="7e0a89b8-554c-2b80-1dc8-d5c74ca68de4">
    <mxGraphModel dx="27" dy="864" grid="1" gridSize="5" guides="1" tooltips="1" connect="1" arrows="1" fold="1" page="1" pageScale="1" pageWidth="1100" pageHeight="850" background="none" math="0" shadow="0">
      <root>
        <mxCell id="0" />
        <mxCell id="1" parent="0" />
        <mxCell id="4JyQR-qfHYJSHUuordY8-10" style="edgeStyle=orthogonalEdgeStyle;rounded=0;orthogonalLoop=1;jettySize=auto;html=1;exitX=1;exitY=0;exitDx=0;exitDy=0;entryX=1;entryY=1;entryDx=0;entryDy=0;endArrow=none;endFill=0;" edge="1" parent="1" source="4JyQR-qfHYJSHUuordY8-1" target="4JyQR-qfHYJSHUuordY8-2">
          <mxGeometry relative="1" as="geometry" />
        </mxCell>
        <mxCell id="4JyQR-qfHYJSHUuordY8-1" value="Arduino NANO&lt;br style=&quot;font-size: 13px;&quot;&gt;ATmega328P (Old bootloader)" style="rounded=0;whiteSpace=wrap;html=1;fontSize=13;" vertex="1" parent="1">
          <mxGeometry x="340" y="260" width="360" height="150" as="geometry" />
        </mxCell>
        <mxCell id="4JyQR-qfHYJSHUuordY8-2" value="Liquid crystal display" style="rounded=0;whiteSpace=wrap;html=1;fontSize=13;" vertex="1" parent="1">
          <mxGeometry x="480" y="60" width="220" height="80" as="geometry" />
        </mxCell>
        <mxCell id="4JyQR-qfHYJSHUuordY8-3" value="" style="pointerEvents=1;verticalLabelPosition=bottom;shadow=0;dashed=0;align=center;html=1;verticalAlign=top;shape=mxgraph.electrical.resistors.resistor_2;direction=south;" vertex="1" parent="1">
          <mxGeometry x="545" y="440" width="10" height="40" as="geometry" />
        </mxCell>
        <mxCell id="4JyQR-qfHYJSHUuordY8-4" value="10k" style="pointerEvents=1;verticalLabelPosition=bottom;shadow=0;dashed=0;align=center;html=1;verticalAlign=top;shape=mxgraph.electrical.resistors.nonlinear_resistor;" vertex="1" parent="1">
          <mxGeometry x="640" y="-30" width="40" height="20" as="geometry" />
        </mxCell>
        <mxCell id="4JyQR-qfHYJSHUuordY8-6" value="" style="html=1;shape=mxgraph.electrical.electro-mechanical.switchDisconnector;aspect=fixed;elSwitchState=off;" vertex="1" parent="1">
          <mxGeometry x="770" y="255" width="40" height="10.67" as="geometry" />
        </mxCell>
        <mxCell id="4JyQR-qfHYJSHUuordY8-7" value="" style="verticalLabelPosition=bottom;shadow=0;dashed=0;align=center;html=1;verticalAlign=top;shape=mxgraph.electrical.opto_electronics.led_2;pointerEvents=1;direction=south;" vertex="1" parent="1">
          <mxGeometry x="620" y="520" width="20" height="40" as="geometry" />
        </mxCell>
        <mxCell id="4JyQR-qfHYJSHUuordY8-8" value="GND" style="pointerEvents=1;verticalLabelPosition=bottom;shadow=0;dashed=0;align=center;html=1;verticalAlign=top;shape=mxgraph.electrical.signal_sources.protective_earth;fontSize=13;" vertex="1" parent="1">
          <mxGeometry x="145" y="80" width="25" height="20" as="geometry" />
        </mxCell>
        <mxCell id="4JyQR-qfHYJSHUuordY8-9" value="+5V" style="pointerEvents=1;verticalLabelPosition=bottom;shadow=0;dashed=0;align=center;html=1;verticalAlign=top;shape=mxgraph.electrical.signal_sources.signal_ground;fontSize=13;" vertex="1" parent="1">
          <mxGeometry x="165" y="375" width="45" height="30" as="geometry" />
        </mxCell>
        <mxCell id="4JyQR-qfHYJSHUuordY8-13" style="edgeStyle=orthogonalEdgeStyle;rounded=0;orthogonalLoop=1;jettySize=auto;html=1;exitX=1;exitY=0;exitDx=0;exitDy=0;entryX=1;entryY=1;entryDx=0;entryDy=0;endArrow=none;endFill=0;" edge="1" parent="1">
          <mxGeometry relative="1" as="geometry">
            <mxPoint x="680" y="260" as="sourcePoint" />
            <mxPoint x="680" y="140" as="targetPoint" />
          </mxGeometry>
        </mxCell>
        <mxCell id="4JyQR-qfHYJSHUuordY8-14" style="edgeStyle=orthogonalEdgeStyle;rounded=0;orthogonalLoop=1;jettySize=auto;html=1;exitX=1;exitY=0;exitDx=0;exitDy=0;entryX=1;entryY=1;entryDx=0;entryDy=0;endArrow=none;endFill=0;" edge="1" parent="1">
          <mxGeometry relative="1" as="geometry">
            <mxPoint x="640" y="260" as="sourcePoint" />
            <mxPoint x="640" y="140" as="targetPoint" />
          </mxGeometry>
        </mxCell>
        <mxCell id="4JyQR-qfHYJSHUuordY8-15" style="edgeStyle=orthogonalEdgeStyle;rounded=0;orthogonalLoop=1;jettySize=auto;html=1;exitX=1;exitY=0;exitDx=0;exitDy=0;entryX=1;entryY=1;entryDx=0;entryDy=0;endArrow=none;endFill=0;" edge="1" parent="1">
          <mxGeometry relative="1" as="geometry">
            <mxPoint x="620" y="260" as="sourcePoint" />
            <mxPoint x="620" y="140" as="targetPoint" />
          </mxGeometry>
        </mxCell>
        <mxCell id="4JyQR-qfHYJSHUuordY8-16" style="edgeStyle=orthogonalEdgeStyle;rounded=0;orthogonalLoop=1;jettySize=auto;html=1;exitX=1;exitY=0;exitDx=0;exitDy=0;entryX=1;entryY=1;entryDx=0;entryDy=0;endArrow=none;endFill=0;" edge="1" parent="1">
          <mxGeometry relative="1" as="geometry">
            <mxPoint x="600" y="260" as="sourcePoint" />
            <mxPoint x="600" y="140" as="targetPoint" />
          </mxGeometry>
        </mxCell>
        <mxCell id="4JyQR-qfHYJSHUuordY8-17" style="edgeStyle=orthogonalEdgeStyle;rounded=0;orthogonalLoop=1;jettySize=auto;html=1;exitX=1;exitY=0;exitDx=0;exitDy=0;entryX=1;entryY=1;entryDx=0;entryDy=0;endArrow=none;endFill=0;" edge="1" parent="1">
          <mxGeometry relative="1" as="geometry">
            <mxPoint x="580" y="260" as="sourcePoint" />
            <mxPoint x="580" y="140" as="targetPoint" />
          </mxGeometry>
        </mxCell>
        <mxCell id="4JyQR-qfHYJSHUuordY8-21" value="" style="pointerEvents=1;verticalLabelPosition=bottom;shadow=0;dashed=0;align=center;html=1;verticalAlign=top;shape=mxgraph.electrical.resistors.resistor_2;direction=south;" vertex="1" parent="1">
          <mxGeometry x="70" y="115" width="10" height="40" as="geometry" />
        </mxCell>
        <mxCell id="4JyQR-qfHYJSHUuordY8-22" value="" style="pointerEvents=1;verticalLabelPosition=bottom;shadow=0;dashed=0;align=center;html=1;verticalAlign=top;shape=mxgraph.electrical.resistors.resistor_2;direction=south;" vertex="1" parent="1">
          <mxGeometry x="585" y="440" width="10" height="40" as="geometry" />
        </mxCell>
        <mxCell id="4JyQR-qfHYJSHUuordY8-23" value="" style="pointerEvents=1;verticalLabelPosition=bottom;shadow=0;dashed=0;align=center;html=1;verticalAlign=top;shape=mxgraph.electrical.resistors.resistor_2;direction=south;" vertex="1" parent="1">
          <mxGeometry x="625" y="440" width="10" height="40" as="geometry" />
        </mxCell>
        <mxCell id="4JyQR-qfHYJSHUuordY8-25" value="" style="verticalLabelPosition=bottom;shadow=0;dashed=0;align=center;html=1;verticalAlign=top;shape=mxgraph.electrical.opto_electronics.led_2;pointerEvents=1;direction=south;" vertex="1" parent="1">
          <mxGeometry x="660" y="520" width="20" height="40" as="geometry" />
        </mxCell>
        <mxCell id="4JyQR-qfHYJSHUuordY8-26" value="" style="verticalLabelPosition=bottom;shadow=0;dashed=0;align=center;html=1;verticalAlign=top;shape=mxgraph.electrical.opto_electronics.led_2;pointerEvents=1;direction=south;" vertex="1" parent="1">
          <mxGeometry x="540" y="520" width="20" height="40" as="geometry" />
        </mxCell>
        <mxCell id="4JyQR-qfHYJSHUuordY8-27" value="" style="verticalLabelPosition=bottom;shadow=0;dashed=0;align=center;html=1;verticalAlign=top;shape=mxgraph.electrical.opto_electronics.led_2;pointerEvents=1;direction=south;" vertex="1" parent="1">
          <mxGeometry x="580" y="520" width="20" height="40" as="geometry" />
        </mxCell>
        <mxCell id="4JyQR-qfHYJSHUuordY8-30" value="" style="pointerEvents=1;verticalLabelPosition=bottom;shadow=0;dashed=0;align=center;html=1;verticalAlign=top;shape=mxgraph.electrical.resistors.resistor_2;direction=south;" vertex="1" parent="1">
          <mxGeometry x="664" y="440" width="10" height="40" as="geometry" />
        </mxCell>
        <mxCell id="4JyQR-qfHYJSHUuordY8-33" style="edgeStyle=orthogonalEdgeStyle;rounded=0;orthogonalLoop=1;jettySize=auto;html=1;entryX=0;entryY=0.5;entryDx=0;entryDy=0;entryPerimeter=0;endArrow=none;endFill=0;" edge="1" parent="1" target="4JyQR-qfHYJSHUuordY8-30">
          <mxGeometry relative="1" as="geometry">
            <mxPoint x="669" y="410" as="sourcePoint" />
            <mxPoint x="668.75" y="440" as="targetPoint" />
          </mxGeometry>
        </mxCell>
        <mxCell id="4JyQR-qfHYJSHUuordY8-34" style="edgeStyle=orthogonalEdgeStyle;rounded=0;orthogonalLoop=1;jettySize=auto;html=1;entryX=0;entryY=0.5;entryDx=0;entryDy=0;entryPerimeter=0;endArrow=none;endFill=0;" edge="1" parent="1">
          <mxGeometry relative="1" as="geometry">
            <mxPoint x="629.97" y="410" as="sourcePoint" />
            <mxPoint x="629.97" y="440" as="targetPoint" />
          </mxGeometry>
        </mxCell>
        <mxCell id="4JyQR-qfHYJSHUuordY8-35" style="edgeStyle=orthogonalEdgeStyle;rounded=0;orthogonalLoop=1;jettySize=auto;html=1;entryX=0;entryY=0.5;entryDx=0;entryDy=0;entryPerimeter=0;endArrow=none;endFill=0;" edge="1" parent="1" target="4JyQR-qfHYJSHUuordY8-22">
          <mxGeometry relative="1" as="geometry">
            <mxPoint x="589.9300000000001" y="410" as="sourcePoint" />
            <mxPoint x="589.9300000000001" y="440" as="targetPoint" />
          </mxGeometry>
        </mxCell>
        <mxCell id="4JyQR-qfHYJSHUuordY8-36" style="edgeStyle=orthogonalEdgeStyle;rounded=0;orthogonalLoop=1;jettySize=auto;html=1;entryX=0;entryY=0.5;entryDx=0;entryDy=0;entryPerimeter=0;endArrow=none;endFill=0;" edge="1" parent="1">
          <mxGeometry relative="1" as="geometry">
            <mxPoint x="550.0000000000001" y="410" as="sourcePoint" />
            <mxPoint x="550.07" y="440" as="targetPoint" />
          </mxGeometry>
        </mxCell>
        <mxCell id="4JyQR-qfHYJSHUuordY8-37" style="edgeStyle=orthogonalEdgeStyle;rounded=0;orthogonalLoop=1;jettySize=auto;html=1;exitX=0.986;exitY=0.51;exitDx=0;exitDy=0;exitPerimeter=0;endArrow=none;endFill=0;entryX=0.015;entryY=0.569;entryDx=0;entryDy=0;entryPerimeter=0;" edge="1" parent="1" source="4JyQR-qfHYJSHUuordY8-23" target="4JyQR-qfHYJSHUuordY8-7">
          <mxGeometry relative="1" as="geometry">
            <mxPoint x="629.75" y="480" as="sourcePoint" />
            <mxPoint x="629.75" y="520" as="targetPoint" />
            <Array as="points">
              <mxPoint x="630" y="500" />
              <mxPoint x="630" y="500" />
              <mxPoint x="630" y="521" />
            </Array>
          </mxGeometry>
        </mxCell>
        <mxCell id="4JyQR-qfHYJSHUuordY8-38" style="edgeStyle=orthogonalEdgeStyle;rounded=0;orthogonalLoop=1;jettySize=auto;html=1;exitX=1;exitY=0.5;exitDx=0;exitDy=0;exitPerimeter=0;endArrow=none;endFill=0;entryX=0;entryY=0.57;entryDx=0;entryDy=0;entryPerimeter=0;" edge="1" parent="1" source="4JyQR-qfHYJSHUuordY8-30" target="4JyQR-qfHYJSHUuordY8-25">
          <mxGeometry relative="1" as="geometry">
            <mxPoint x="669.5" y="480" as="sourcePoint" />
            <mxPoint x="675" y="515" as="targetPoint" />
            <Array as="points">
              <mxPoint x="669" y="510" />
              <mxPoint x="669" y="510" />
            </Array>
          </mxGeometry>
        </mxCell>
      </root>
    </mxGraphModel>
  </diagram>
</mxfile>
